<svg width="42" height="42" viewBox="0 0 42 42" fill="none" xmlns="http://www.w3.org/2000/svg">
<rect width="42" height="42" rx="21" fill="white"/>
<path d="M27.7663 15.3261C27.3753 14.9057 26.9111 14.5722 26.4002 14.3447C25.8893 14.1171 25.3417 14 24.7887 14C24.2357 14 23.6881 14.1171 23.1772 14.3447C22.6663 14.5722 22.2021 14.9057 21.8112 15.3261L20.9998 16.1982L20.1884 15.3261C19.3987 14.4773 18.3277 14.0004 17.2109 14.0004C16.0941 14.0004 15.023 14.4773 14.2333 15.3261C13.4436 16.1749 13 17.3262 13 18.5266C13 19.727 13.4436 20.8782 14.2333 21.727L15.0447 22.5991L20.9998 29L26.9549 22.5991L27.7663 21.727C28.1574 21.3068 28.4677 20.8079 28.6794 20.2587C28.891 19.7096 29 19.121 29 18.5266C29 17.9321 28.891 17.3435 28.6794 16.7944C28.4677 16.2453 28.1574 15.7463 27.7663 15.3261Z" stroke="black" stroke-opacity="0.5" stroke-width="2" stroke-linecap="round" stroke-linejoin="round"/>
</svg>
